<?xml version="1.0" encoding="utf-8"?>

<svg version="1.1" id="Layer_1" xmlns="http://www.w3.org/2000/svg" xmlns:xlink="http://www.w3.org/1999/xlink" x="0px" y="0px"
	 viewBox="0 0 512 512" style="enable-background:new 0 0 512 512;" xml:space="preserve">
<style type="text/css">
	.st0{fill:#231F20;}
</style>
<g>
	<path class="st0" d="M398.3,499.7c-4.1,0-8.1-1-11.8-2.8l-130.8-68.5l-130.8,68.5c-12.5,6.6-28,1.8-34.6-10.8
		c-2.7-5-3.6-10.8-2.6-16.4l25.7-144.4L7.5,222.6c-6.7-6.7-9.2-16.6-6.4-25.7c3-9.3,11.1-16.1,20.8-17.4l146.2-21.3l64.4-131.6
		c6.2-12.8,21.5-18.1,34.3-11.9c5.2,2.5,9.4,6.7,11.9,11.9L343.9,158l146.2,21.3c9.7,1.4,17.8,8.1,20.8,17.4
		c2.8,9.1,0.3,19-6.4,25.7L398.8,325l25.7,144.4c1.9,9.8-2.1,19.8-10.3,25.7C409.5,498.4,403.9,500,398.3,499.7z M255.6,374
		c4.1-0.1,8.2,0.9,11.8,2.8l96.7,51.3l-18.5-108c-1.5-8.4,1.3-16.9,7.4-22.8l77-75.2l-107.8-15.9c-8-1.6-14.8-7-18.2-14.4
		l-48.5-96.2l-48.5,96.2c-3.8,7.5-11,12.7-19.2,13.9L80.1,221.6l77,75.2c6.1,5.9,8.9,14.5,7.4,22.8l-18.5,106.7l96.7-51.3
		C246.9,373.5,251.3,373.1,255.6,374z"/>
</g>
</svg>
