<svg version="1.1" id="Layer_1" xmlns="http://www.w3.org/2000/svg" xmlns:xlink="http://www.w3.org/1999/xlink"
	 viewBox="0 0 512 512" xml:space="preserve">
	<g>
		<path d="M503.4,239.3L383.2,119.1l-0.8,0.8c-33.3-31.1-77.9-50.1-127-50.1c-55.1,0-104.7,24-138.8,62.1L4.7,243.8l0.1,0.1
			c-3,3.4-4.8,7.8-4.8,12.6c0,6.1,2.9,11.4,7.2,14.9l121.3,121.3l0.3-0.3c33.2,30.8,77.7,49.7,126.5,49.7c55.1,0,104.6-23.9,138.6-62
			l0.4,0.4l111.2-111.2l1.3-1.3l0,0c3.1-3.4,5-7.9,5-12.9C512,248.6,508.6,242.7,503.4,239.3z M255.4,382.2
			c-69.7,0-126.2-56.5-126.2-126.2c0-69.7,56.5-126.2,126.2-126.2S381.6,186.3,381.6,256C381.6,325.7,325.1,382.2,255.4,382.2z"/>
		<path d="M255.9,195.4c33.8,0,61.1,27.4,61.1,61.1c0,33.8-27.4,61.1-61.1,61.1c-33.8,0-61.1-27.4-61.1-61.1
			C194.8,222.8,222.2,195.4,255.9,195.4z"/>
	</g>
</svg>
