<svg width="1366" height="768" version="1.1" viewBox="0 0 1366 768" xmlns="http://www.w3.org/2000/svg" xmlns:xlink="http://www.w3.org/1999/xlink"><defs><linearGradient id="linearGradient1351" x1="484.7" x2="1544" y1="206.3" y2="854.9" gradientTransform="matrix(1 0 0 1 -9.936 -6.828)" gradientUnits="userSpaceOnUse"><stop stop-color="#051240" offset="0"/><stop stop-color="#cb38e1" offset="1"/></linearGradient></defs><g transform="translate(9.936 6.827)"><rect x="-9.936" y="-6.826" width="1366" height="768" fill="url(#linearGradient1351)" stroke-width="2125"/><g transform="translate(181.6 30.89)" fill="#fff" style="shape-inside:url(#rect577);white-space:pre" aria-label="Selection"><path d="m92.04 407.6q-10.93 0-20.8-2.933-9.867-3.2-17.6-8.533-7.467-5.333-12.53-11.73l7.467-18.67q4.8 8 12 14.4 7.467 6.133 16.53 9.867 9.067 3.467 19.47 3.467 14.4 0 23.73-6.933 9.333-7.2 11.73-18.4 2.133-10.67-2.133-18.67-4.267-8.267-12.27-15.2t-17.07-13.87q-9.067-6.933-16.8-14.67-7.467-8-11.2-17.87t-.5333-23.2q3.2-13.07 11.73-21.33 8.8-8.267 20.27-12.27 11.73-4 23.47-4 13.07 0 24 4.533 11.2 4.533 18.67 13.07l-7.467 17.07q-6.933-9.867-16.53-15.2t-20.8-5.333q-8 0-15.47 2.933-7.467 2.667-12.8 8-5.067 5.333-6.933 13.07-2.133 10.13 1.867 18.13 4.267 8 12.27 14.67 8 6.667 17.07 13.33 9.067 6.667 16.8 14.67 7.733 7.733 11.47 18.13 3.733 10.13.5333 24.27-2.667 12.53-11.2 21.6-8.267 8.8-20.53 13.33-12.27 4.267-26.4 4.267z"/><path d="m215.5 407.3q-13.87 0-23.2-6.667-9.333-6.933-12.8-18.93-3.2-12 .2667-28 3.733-16.8 13.6-30.67 10.13-13.87 24-22.4 13.87-8.533 29.6-8.533 10.67 0 16.27 4 5.6 3.733 7.2 9.867 1.867 6.133.5333 13.07-2.4 11.47-13.33 20-10.67 8.533-27.47 14.13-16.8 5.333-37.6 8.267l.5333-10.67q17.6-2.933 30.93-7.467 13.6-4.8 21.6-10.93t9.6-12.53q.5333-2.667-.2667-6.133-.5333-3.467-3.467-5.867-2.933-2.667-10.13-2.667-10.67 0-19.73 6.933-9.067 6.667-15.47 17.6-6.4 10.67-9.333 22.67-2.933 12.27-1.6 21.6 1.6 9.333 7.467 14.67 6.133 5.067 16.53 5.067 6.667 0 14.67-2.667 8.267-2.933 16-9.6l6.4 8.8q-6.133 5.333-13.07 9.333-6.667 4-13.6 5.867-6.933 1.867-14.13 1.867z"/><path d="m302.4 406.3q-5.333 0-8.8-2.133t-4.533-6.667q-1.067-4.8.2667-11.73l37.6-170.4h16.27l-36.53 165.9q-1.067 5.067-.2667 8 .8 2.667 4.8 2.667 3.733 0 8.267-3.2 4.533-3.467 10.4-9.067l5.867 6.933q-8.8 9.333-17.33 14.67-8.267 5.067-16 5.067z"/><path d="m391 407.3q-13.87 0-23.2-6.667-9.333-6.933-12.8-18.93-3.2-12 .2667-28 3.733-16.8 13.6-30.67 10.13-13.87 24-22.4 13.87-8.533 29.6-8.533 10.67 0 16.27 4 5.6 3.733 7.2 9.867 1.867 6.133.5333 13.07-2.4 11.47-13.33 20-10.67 8.533-27.47 14.13-16.8 5.333-37.6 8.267l.5333-10.67q17.6-2.933 30.93-7.467 13.6-4.8 21.6-10.93t9.6-12.53q.5333-2.667-.2667-6.133-.5333-3.467-3.467-5.867-2.933-2.667-10.13-2.667-10.67 0-19.73 6.933-9.067 6.667-15.47 17.6-6.4 10.67-9.333 22.67-2.933 12.27-1.6 21.6 1.6 9.333 7.467 14.67 6.133 5.067 16.53 5.067 6.667 0 14.67-2.667 8.267-2.933 16-9.6l6.4 8.8q-6.133 5.333-13.07 9.333-6.667 4-13.6 5.867-6.933 1.867-14.13 1.867z"/><path d="m495.8 407.1q-13.33 0-22.4-6.667-9.067-6.667-12.53-18.67-3.2-12.27 0-28 3.467-17.33 13.07-31.2t23.2-22.13 28.8-8.267q8.267 0 14.67 2.933 6.667 2.667 10.93 8.533l-12 11.2q-3.2-4.267-7.733-6.4t-10.67-2.133q-10.13 0-18.93 6.4-8.8 6.133-15.2 16.8-6.133 10.4-8.8 22.93-4 18.93 1.867 30.13 5.867 11.2 19.47 11.2 8.267 0 16-3.2 7.733-3.467 13.6-9.067l6.667 8.533q-8 7.733-18.4 12.53-10.4 4.533-21.6 4.533z"/><path d="m588.8 407.1q-12.27 0-18.4-9.067-5.867-9.067-2.133-25.6l16.53-69.87 9.6-30.93 14.67-2.933-23.73 102.1q-2.667 11.2-.2667 17.07 2.667 5.6 9.6 5.6 5.6 0 12.27-3.467 6.667-3.467 14.13-9.6l6.133 7.2q-9.867 9.867-19.73 14.67-9.867 4.8-18.67 4.8zm-26.93-98.4 2.667-10.93 76.53-1.067-2.933 12.8z"/><path d="m667.2 406.3q-5.067 0-8.8-2.133-3.467-2.4-4.8-6.933-1.067-4.8.8-12l21.33-90.67h16.27l-20.27 86.67q-1.067 4.8-.5333 7.733.8 2.933 4.8 2.933 4 0 8.267-3.2 4.533-3.467 10.67-9.067l5.867 6.933q-9.067 9.333-17.6 14.67-8.267 5.067-16 5.067zm24.53-144q-4 0-6.933-1.867-2.667-1.867-4-5.067-1.067-3.2-.2667-6.933.8-5.067 4.533-8.267 3.733-3.2 9.067-3.2 4 0 6.667 1.867 2.667 1.867 3.733 5.067 1.333 3.2.5333 7.2-.8 4.8-4.533 8-3.733 3.2-8.8 3.2z"/><path d="m754.4 407.1q-14.13 0-22.93-6.933-8.8-6.933-11.73-18.93-2.933-12.27.2667-27.47 3.467-17.6 12.8-31.47 9.333-13.87 22.67-21.87 13.33-8.267 28.53-8.267 13.87 0 22.67 6.933 8.8 6.667 12 18.67 3.2 12-.2667 27.73-3.467 16.8-12.8 30.93-9.067 13.87-22.4 22.4-13.07 8.267-28.8 8.267zm4.267-12.8q10.4 0 18.93-6.667 8.533-6.667 14.4-17.6 6.133-10.93 8.8-23.47 3.467-17.6-1.6-29.33-5.067-12-19.2-12-9.333 0-18.13 5.867-8.533 5.867-14.93 16.53-6.4 10.67-9.333 24.8-3.467 18.93 2.133 30.4 5.6 11.47 18.93 11.47z"/><path d="m927.5 406.3q-5.067 0-8.533-2.133t-4.533-6.667q-1.067-4.8.8-11.73l14.13-56.53q2.4-9.6.2667-15.47-2.133-6.133-9.867-6.133-8.533 0-18.4 7.467-9.6 7.467-18.93 20.8-9.333 13.33-16.8 31.2-7.467 17.6-11.2 37.87h-12q6.133-25.87 15.47-46.4 9.333-20.8 20.8-35.2 11.47-14.67 23.47-22.4 12.27-7.733 24-7.733 8.267 0 13.6 4 5.6 3.733 7.2 12 1.867 8-1.333 20l-13.6 52q-1.333 4.8-.5333 7.733.8 2.933 4.533 2.933 4.267 0 8.8-3.2 4.533-3.467 10.4-9.067l5.867 6.933q-8.8 9.333-17.33 14.67-8.267 5.067-16.27 5.067zm-89.6-1.333 25.07-110.4h15.73l-24.53 110.4z"/></g></g></svg>
